<svg width="63" height="21" viewBox="0 0 63 21" fill="none" xmlns="http://www.w3.org/2000/svg">
<path d="M2.808 20.088C2.312 20.088 1.856 19.952 1.44 19.68C1.024 19.424 0.816 19.104 0.816 18.72C0.816 18.448 0.92 18 1.128 17.376C2.36 13.6 3.352 10.656 4.104 8.544C4.856 6.432 5.776 4.168 6.864 1.752C6.048 1.944 5.208 2.264 4.344 2.712C3.96 2.904 3.728 3 3.648 3C3.504 3 3.312 2.888 3.072 2.664C2.848 2.424 2.736 2.224 2.736 2.064C4.88 1.168 6.76 0.719999 8.376 0.719999C9.432 0.719999 10.472 0.903999 11.496 1.272C12.536 1.64 13.392 2.184 14.064 2.904C14.736 3.608 15.072 4.448 15.072 5.424C15.072 6.96 14.456 8.144 13.224 8.976C11.992 9.808 10.64 10.368 9.168 10.656C7.712 10.928 6.48 11.064 5.472 11.064H5.328L3.984 15.888C3.648 17.168 3.256 18.568 2.808 20.088ZM5.544 10.32C6.824 10.24 8.032 9.992 9.168 9.576C10.32 9.16 11.256 8.568 11.976 7.8C12.712 7.032 13.08 6.112 13.08 5.04C13.08 3.936 12.656 3.088 11.808 2.496C10.96 1.904 9.928 1.592 8.712 1.56C7.752 3.416 6.696 6.336 5.544 10.32ZM13.1565 19.128C12.5965 19.128 12.1325 18.944 11.7645 18.576C11.3805 18.208 11.1885 17.688 11.1885 17.016C11.1885 16.088 11.5245 15.048 12.1965 13.896C12.8845 12.744 13.7565 11.768 14.8125 10.968C15.8685 10.168 16.9245 9.768 17.9805 9.768C18.6845 9.768 19.2685 9.952 19.7325 10.32C20.2125 10.672 20.4525 11.128 20.4525 11.688C20.4525 12.424 19.9965 12.808 19.0845 12.84C19.6605 13.016 19.9485 13.256 19.9485 13.56C19.9485 13.672 19.8925 13.84 19.7805 14.064C19.6685 14.288 19.5405 14.52 19.3965 14.76C19.1405 15.176 18.9405 15.544 18.7965 15.864C18.6525 16.168 18.5805 16.456 18.5805 16.728C18.5805 16.968 18.6365 17.176 18.7485 17.352C18.8765 17.512 19.0605 17.592 19.3005 17.592C19.7485 17.592 20.3165 17.28 21.0045 16.656C21.7085 16.032 22.3885 15.096 23.0445 13.848L23.5005 14.304C22.9085 15.632 22.1725 16.704 21.2925 17.52C20.4125 18.32 19.5245 18.72 18.6285 18.72C17.9885 18.72 17.4925 18.504 17.1405 18.072C16.8045 17.656 16.6365 17.176 16.6365 16.632C15.9165 17.496 15.3005 18.128 14.7885 18.528C14.2765 18.928 13.7325 19.128 13.1565 19.128ZM13.6605 17.904C14.2205 17.904 14.8685 17.504 15.6045 16.704C16.3565 15.888 17.2045 14.832 18.1485 13.536L18.6285 12.888C18.6765 12.808 18.7405 12.768 18.8205 12.768L18.9165 12.792C18.9965 12.536 19.0365 12.24 19.0365 11.904C19.0365 11.072 18.7005 10.656 18.0285 10.656C17.3245 10.656 16.5885 11.032 15.8205 11.784C15.0525 12.536 14.4045 13.432 13.8765 14.472C13.3645 15.512 13.1085 16.4 13.1085 17.136C13.1085 17.408 13.1485 17.608 13.2285 17.736C13.3245 17.848 13.4685 17.904 13.6605 17.904ZM30.5646 18.48C29.9566 18.48 29.4846 18.328 29.1486 18.024C28.8126 17.72 28.6446 17.32 28.6446 16.824C28.6446 16.616 28.6766 16.376 28.7406 16.104C28.8206 15.832 28.9006 15.56 28.9806 15.288C29.2046 14.552 29.3166 14.008 29.3166 13.656C29.3166 13.336 29.2366 13.104 29.0766 12.96C28.9166 12.8 28.7166 12.72 28.4766 12.72C27.6286 12.72 26.7726 13.256 25.9086 14.328C25.0446 15.384 24.1166 16.728 23.1246 18.36C22.4366 18.36 21.9166 18.128 21.5646 17.664L21.7806 17.064C22.7246 14.776 23.1966 13.08 23.1966 11.976C23.3246 11.832 23.5086 11.704 23.7486 11.592C23.9886 11.464 24.2206 11.4 24.4446 11.4C24.7166 11.4 24.9246 11.464 25.0686 11.592C25.2126 11.72 25.2846 11.896 25.2846 12.12C25.2846 12.552 25.1486 13.264 24.8766 14.256C25.5966 13.296 26.3406 12.512 27.1086 11.904C27.8926 11.296 28.6606 10.992 29.4126 10.992C30.0526 10.992 30.5486 11.216 30.9006 11.664C31.2526 12.096 31.4286 12.616 31.4286 13.224C31.4286 13.576 31.3806 13.912 31.2846 14.232C31.2046 14.552 31.0766 14.912 30.9006 15.312C30.6286 15.984 30.4926 16.488 30.4926 16.824C30.4926 17.064 30.5486 17.24 30.6606 17.352C30.7726 17.464 30.9086 17.52 31.0686 17.52C31.5966 17.52 32.1646 17.16 32.7726 16.44C33.3966 15.704 33.9566 14.84 34.4526 13.848L34.8606 14.184C34.2846 15.512 33.6446 16.56 32.9406 17.328C32.2526 18.096 31.4606 18.48 30.5646 18.48ZM41.4283 18.912C40.8043 18.912 40.2763 18.656 39.8443 18.144C39.4123 17.648 39.0923 17.048 38.8843 16.344C38.6763 15.64 38.5723 15.008 38.5723 14.448C40.6363 13.984 41.6683 13.272 41.6683 12.312C41.6683 12.024 41.5723 11.792 41.3803 11.616C41.2043 11.44 40.9483 11.352 40.6123 11.352C39.6363 11.352 38.7723 11.976 38.0203 13.224C37.2843 14.456 36.6123 15.888 36.0043 17.52C35.8283 18 35.6603 18.32 35.5003 18.48C35.3403 18.656 35.1083 18.744 34.8043 18.744C34.5483 18.744 34.3243 18.632 34.1323 18.408C33.9563 18.184 33.8683 17.696 33.8683 16.944C33.8683 15.104 34.3403 12.92 35.2843 10.392C36.2283 7.848 37.3083 5.624 38.5243 3.72C39.7403 1.816 40.6683 0.863999 41.3083 0.863999C41.5803 0.863999 41.8043 1.032 41.9803 1.368C42.1723 1.704 42.2683 2.12 42.2683 2.616C42.2683 3.336 42.0523 4.168 41.6203 5.112C41.2043 6.04 40.6123 6.936 39.8443 7.8C39.0923 8.664 38.2443 9.376 37.3003 9.936C36.8843 10.928 36.5483 11.936 36.2923 12.96C36.0363 13.968 35.8763 14.888 35.8123 15.72C37.5403 11.752 39.3163 9.768 41.1403 9.768C41.7803 9.768 42.3403 10 42.8203 10.464C43.3003 10.912 43.5403 11.464 43.5403 12.12C43.5403 12.712 43.3403 13.224 42.9403 13.656C42.5403 14.072 42.0683 14.392 41.5243 14.616C40.9803 14.824 40.5003 14.936 40.0843 14.952C40.2443 15.688 40.4603 16.344 40.7323 16.92C41.0203 17.48 41.4363 17.76 41.9803 17.76C42.5563 17.76 43.1643 17.384 43.8043 16.632C44.4443 15.864 45.0283 14.896 45.5563 13.728L45.8923 14.136C45.4443 15.432 44.8043 16.552 43.9723 17.496C43.1403 18.44 42.2923 18.912 41.4283 18.912ZM37.9963 8.304C38.7803 7.616 39.4923 6.792 40.1323 5.832C40.7883 4.856 41.1243 3.952 41.1403 3.12C40.8843 3.232 40.4443 3.792 39.8203 4.8C39.1963 5.808 38.5883 6.976 37.9963 8.304ZM47.6903 19.056C46.6823 19.056 45.8983 18.784 45.3383 18.24C44.7782 17.696 44.4982 17 44.4982 16.152C44.4982 15.224 44.8102 14.224 45.4343 13.152C46.0583 12.064 46.8583 11.16 47.8343 10.44C48.8103 9.704 49.7703 9.336 50.7143 9.336C51.2103 9.336 51.6263 9.464 51.9622 9.72C52.2983 9.96 52.4663 10.368 52.4663 10.944C52.4663 11.712 52.1703 12.44 51.5783 13.128C50.9863 13.8 50.2183 14.352 49.2743 14.784C48.3463 15.216 47.3943 15.488 46.4183 15.6C46.3863 15.76 46.3703 15.944 46.3703 16.152C46.3703 16.568 46.4823 16.984 46.7063 17.4C46.9463 17.816 47.4503 18.024 48.2183 18.024C49.1943 18.024 50.1863 17.632 51.1943 16.848C52.2183 16.048 53.0423 15.056 53.6663 13.872L54.1463 14.256C53.5063 15.696 52.5863 16.856 51.3863 17.736C50.2023 18.616 48.9703 19.056 47.6903 19.056ZM46.6823 14.712C47.2583 14.648 47.8983 14.416 48.6023 14.016C49.3223 13.616 49.9303 13.128 50.4263 12.552C50.9223 11.96 51.1703 11.384 51.1703 10.824C51.1703 10.648 51.1383 10.528 51.0742 10.464C51.0103 10.4 50.9063 10.368 50.7623 10.368C50.2983 10.368 49.7863 10.592 49.2263 11.04C48.6823 11.472 48.1783 12.024 47.7143 12.696C47.2503 13.368 46.9063 14.04 46.6823 14.712ZM57.5259 18.624C56.9339 18.624 56.4539 18.464 56.0859 18.144C55.7179 17.84 55.5339 17.424 55.5339 16.896C55.5339 16.592 55.5899 16.264 55.7019 15.912C55.8299 15.544 56.0139 15.104 56.2539 14.592C56.4619 14.144 56.6219 13.768 56.7339 13.464C56.8459 13.144 56.9019 12.864 56.9019 12.624C56.9019 12.016 56.5019 11.504 55.7019 11.088C55.3819 11.888 55.0059 12.696 54.5739 13.512C54.1579 14.328 53.7819 15.016 53.4459 15.576L53.0859 14.88C53.8219 13.568 54.4699 12.12 55.0299 10.536C54.8699 10.376 54.7899 10.16 54.7899 9.888C54.7899 9.472 54.9179 9.08 55.1739 8.712C55.4299 8.344 55.6779 8.16 55.9179 8.16C56.0779 8.16 56.2059 8.256 56.3019 8.448C56.4139 8.64 56.4699 8.8 56.4699 8.928C56.4699 8.992 56.4299 9.136 56.3499 9.36C56.2859 9.568 56.2379 9.72 56.2059 9.816C56.2219 9.928 56.2859 10.04 56.3979 10.152C56.5099 10.248 56.7179 10.392 57.0219 10.584C57.5819 10.952 58.0139 11.312 58.3179 11.664C58.6379 12 58.7979 12.456 58.7979 13.032C58.7979 13.384 58.7339 13.736 58.6059 14.088C58.4939 14.44 58.3179 14.864 58.0779 15.36C57.7259 16.064 57.5499 16.568 57.5499 16.872C57.5499 17.24 57.7499 17.424 58.1499 17.424C58.6299 17.424 59.1499 17.232 59.7099 16.848C60.2859 16.464 60.8059 16 61.2699 15.456C61.7499 14.896 62.1019 14.376 62.3259 13.896L62.9019 14.328C62.5819 15.048 62.1339 15.736 61.5579 16.392C60.9819 17.048 60.3339 17.584 59.6139 18C58.9099 18.416 58.2139 18.624 57.5259 18.624Z" fill="black"/>
</svg>
